<?xml version="1.0" encoding="utf-8"?>
<!-- Generator: Adobe Illustrator 28.1.0, SVG Export Plug-In . SVG Version: 6.00 Build 0)  -->
<svg version="1.1" id="Layer_1" xmlns="http://www.w3.org/2000/svg" xmlns:xlink="http://www.w3.org/1999/xlink" x="0px" y="0px"
	 viewBox="0 0 358.2 116.8" style="enable-background:new 0 0 358.2 116.8;" xml:space="preserve">
<style type="text/css">
	.st0{fill:url(#SVGID_1_);}
	.st1{fill:url(#SVGID_00000173141309221172889940000011032105524488485566_);}
	.st2{fill:url(#SVGID_00000077292359718339162380000001750698239238625214_);}
	.st3{fill:url(#SVGID_00000129194410955889955920000000521582240768089247_);}
	.st4{fill:url(#SVGID_00000029764307795492256370000012764379439692224928_);}
	.st5{fill:url(#SVGID_00000106826466598813463950000010306682442144860323_);}
	.st6{fill:url(#SVGID_00000088820689334231600000000004803364398431170437_);}
	.st7{fill:url(#SVGID_00000127751286356913834450000012466481692340419206_);}
	.st8{fill:url(#SVGID_00000054959943468305399310000015453795750142178444_);}
	.st9{fill:url(#SVGID_00000160164239776639250080000009380973089173238439_);}
	.st10{fill:none;}
</style>
<g>
	
		<linearGradient id="SVGID_1_" gradientUnits="userSpaceOnUse" x1="42.5206" y1="43.7529" x2="317.5206" y2="79.7529" gradientTransform="matrix(1 0 0 -1 0 118)">
		<stop  offset="0" style="stop-color:#005192"/>
		<stop  offset="1" style="stop-color:#008BC5"/>
	</linearGradient>
	<path class="st0" d="M110.5,78.4h22c1.9,0,3.2-1.4,3.2-3.5v-1.8c-1.1,0.2-2.6,0.3-5.6,0.3h-7.2l12.6-24.2h-24.7v4.8h11.1l-10.5,20
		C110.2,75.9,110.1,77.3,110.5,78.4"/>
	
		<linearGradient id="SVGID_00000093858089515524563960000006532681661094023337_" gradientUnits="userSpaceOnUse" x1="42.2189" y1="46.0567" x2="317.219" y2="82.0567" gradientTransform="matrix(1 0 0 -1 0 118)">
		<stop  offset="0" style="stop-color:#005192"/>
		<stop  offset="1" style="stop-color:#008BC5"/>
	</linearGradient>
	<path style="fill:url(#SVGID_00000093858089515524563960000006532681661094023337_);" d="M88.6,63l5.7,10.9
		c1.6,3.2,2.3,4.5,5.9,4.5h8.1c-0.5-0.4-0.9-1.1-1.7-2.6l-8.3-15.2l9.7-11.3h-8.6L88.6,63z"/>
	
		<linearGradient id="SVGID_00000044162114879904701080000002206307393708787888_" gradientUnits="userSpaceOnUse" x1="41.1183" y1="54.4639" x2="316.1184" y2="90.4639" gradientTransform="matrix(1 0 0 -1 0 118)">
		<stop  offset="0" style="stop-color:#005192"/>
		<stop  offset="1" style="stop-color:#008BC5"/>
	</linearGradient>
	<path style="fill:url(#SVGID_00000044162114879904701080000002206307393708787888_);" d="M77.9,78.4h10V43.7c0-3.6-2.6-6-6.3-6
		h-3.8V78.4z"/>
	
		<linearGradient id="SVGID_00000160192737912747646910000009328465282606476425_" gradientUnits="userSpaceOnUse" x1="40.9745" y1="55.5634" x2="315.9745" y2="91.5634" gradientTransform="matrix(1 0 0 -1 0 118)">
		<stop  offset="0" style="stop-color:#005192"/>
		<stop  offset="1" style="stop-color:#008BC5"/>
	</linearGradient>
	<path style="fill:url(#SVGID_00000160192737912747646910000009328465282606476425_);" d="M73.5,75.8l-10-29.9
		c-1.2-3.6-2.4-5.2-7.3-5.2h-4.8l-14,37.7h6.3l3.2-9.3h13.5l1.9,6c0.7,2.2,1.6,3.2,4,3.2h8.5C74.3,77.9,74,77.3,73.5,75.8z
		 M48.5,64.6l5.4-15.8l5,15.8H48.5z"/>
	
		<linearGradient id="SVGID_00000162352215177205229030000008976753300954330243_" gradientUnits="userSpaceOnUse" x1="43.0394" y1="39.7896" x2="318.0394" y2="75.7896" gradientTransform="matrix(1 0 0 -1 0 118)">
		<stop  offset="0" style="stop-color:#005192"/>
		<stop  offset="1" style="stop-color:#008BC5"/>
	</linearGradient>
	<path style="fill:url(#SVGID_00000162352215177205229030000008976753300954330243_);" d="M152.6,79.1c8.3,0,15.4-6,15.4-15.9
		c0-8.4-6.8-14.7-15.3-14.7c-8.4,0-15.5,6.1-15.5,16C137.3,73.3,144.4,79.1,152.6,79.1 M152.8,73.7c-3.4,0-4.6-3.9-4.6-10.1
		c0-5.8,1.2-9.8,4.6-9.8c3.4,0,4.5,4.2,4.5,10.4C157.3,70,156.2,73.7,152.8,73.7"/>
	
		<linearGradient id="SVGID_00000093165349615045740950000003848735968416910756_" gradientUnits="userSpaceOnUse" x1="43.0958" y1="39.358" x2="318.0958" y2="75.358" gradientTransform="matrix(1 0 0 -1 0 118)">
		<stop  offset="0" style="stop-color:#005192"/>
		<stop  offset="1" style="stop-color:#008BC5"/>
	</linearGradient>
	<path style="fill:url(#SVGID_00000093165349615045740950000003848735968416910756_);" d="M172.6,78.4h6.3v-24l16,19.2
		c2.2,2.7,3.7,4.9,6.1,4.9h4.6V43.9c0-2-1.4-3.3-3.4-3.3h-2.8v22.7L184,45.1c-2.3-2.8-3.5-4.4-6.8-4.4h-4.6L172.6,78.4L172.6,78.4z"
		/>
	
		<linearGradient id="SVGID_00000035489828362628426070000018015387673213188509_" gradientUnits="userSpaceOnUse" x1="44.2624" y1="30.4472" x2="319.2624" y2="66.4472" gradientTransform="matrix(1 0 0 -1 0 118)">
		<stop  offset="0" style="stop-color:#005192"/>
		<stop  offset="1" style="stop-color:#008BC5"/>
	</linearGradient>
	<path style="fill:url(#SVGID_00000035489828362628426070000018015387673213188509_);" d="M225.2,79.1c8.3,0,15.4-6,15.4-15.9
		c0-8.4-6.8-14.7-15.3-14.7c-8.5,0-15.5,6.1-15.5,16C209.9,73.3,216.9,79.1,225.2,79.1 M225.4,73.7c-3.4,0-4.6-3.9-4.6-10.1
		c0-5.8,1.2-9.8,4.6-9.8c3.4,0,4.5,4.2,4.5,10.4C229.9,70,228.8,73.7,225.4,73.7"/>
	
		<linearGradient id="SVGID_00000155109460374897494850000008152884072064460214_" gradientUnits="userSpaceOnUse" x1="45.4027" y1="21.7361" x2="320.4027" y2="57.7361" gradientTransform="matrix(1 0 0 -1 0 118)">
		<stop  offset="0" style="stop-color:#005192"/>
		<stop  offset="1" style="stop-color:#008BC5"/>
	</linearGradient>
	<path style="fill:url(#SVGID_00000155109460374897494850000008152884072064460214_);" d="M306.4,64.4c0.2-1.2,0.2-2.3,0.2-3.4
		c0-6.9-5.1-12.4-13.9-12.4c-8.7,0-15,6.1-15,15.3c0,9,5.6,15.2,14.7,15.2s12.4-4.7,12.6-9.3c-2,1.4-4.9,2.2-8.3,2.2
		c-5.1,0-8.4-2.9-8.9-7.6C287.8,64.4,306.4,64.4,306.4,64.4z M287.9,60.4c0.3-4.3,2-7,4.8-7c3.9,0,4.6,7,4.6,7H287.9z"/>
	
		<linearGradient id="SVGID_00000028309093296086025700000012349026856275838396_" gradientUnits="userSpaceOnUse" x1="43.965" y1="32.7192" x2="318.9649" y2="68.7192" gradientTransform="matrix(1 0 0 -1 0 118)">
		<stop  offset="0" style="stop-color:#005192"/>
		<stop  offset="1" style="stop-color:#008BC5"/>
	</linearGradient>
	<path style="fill:url(#SVGID_00000028309093296086025700000012349026856275838396_);" d="M262.7,48.9c-3.4,0-6.2,1.2-7.6,2.6v-7.9
		c0-3.6-2.6-6-6.2-6H245v40.7h11.7c11.2,0,17.4-5.8,17.4-16.8C274.2,54.4,269.2,48.9,262.7,48.9z M256.5,73.6H255V54.8
		c0.6-0.1,1.2-0.1,2.2-0.1c3.8,0,6.7,3.5,6.7,8.2C263.9,69.8,261.2,73.6,256.5,73.6z"/>
	
		<linearGradient id="SVGID_00000075121980066529154600000000156577124860141727_" gradientUnits="userSpaceOnUse" x1="45.0426" y1="24.4871" x2="320.0426" y2="60.4871" gradientTransform="matrix(1 0 0 -1 0 118)">
		<stop  offset="0" style="stop-color:#005192"/>
		<stop  offset="1" style="stop-color:#008BC5"/>
	</linearGradient>
	<path style="fill:url(#SVGID_00000075121980066529154600000000156577124860141727_);" d="M310.8,78.4h10V43.7c0-3.6-2.6-6-6.3-6
		h-3.7V78.4z"/>
</g>
<rect class="st10" width="358.2" height="116.8"/>
</svg>
